<svg xmlns="http://www.w3.org/2000/svg" xml:space="preserve" x="0" y="0" viewBox="0 0 512 512"><style>.st1{fill:none;stroke:#fff;stroke-width:14.1732;stroke-miterlimit:10}.st2{fill:#fff}</style><path d="M0 0h512v512H0z" style="fill:#18181b"/><path d="m264.19 303.77 40.56-52.68M348.39 266.99l-23.57-19.24" class="st1"/><path d="M331.09 277.87c-.74-1.2-6.51-8.84-14.1-8.84-2.65 0-7.88 5.51-9.02 9.05 0 1.5 8.99 36 8.99 36h-31.82c-.05 15.96-13 28.88-28.98 28.88-15.97 0-28.92-12.92-28.98-28.88h-31.59l40.52-152.27h39.83l15.5 57.55c4.68-6.59 13.08-11.92 21.55-11.13-9.9-35.79-17.91-64.23-17.91-64.23s-8.45-7.94-38.83-7.94-39.12 7.94-39.12 7.94S162 339.64 162 350.36c0 12.58 7.77 19.65 19.13 22.68h149.95c9.41 0 18.99-11.7 18.99-22.68.01-4.3-8.71-34.41-18.98-72.49" class="st2"/><circle cx="256.25" cy="314.08" r="15.29" style="fill:none;stroke:#00db70;stroke-width:11.3386;stroke-miterlimit:10"/><circle cx="314.08" cy="238.98" r="15.29" style="fill:none;stroke:#ff575e;stroke-width:11.3386;stroke-miterlimit:10"/><circle cx="361.98" cy="278.08" r="15.29" style="fill:none;stroke:#ffbf00;stroke-width:11.3386;stroke-miterlimit:10"/><circle cx="256.25" cy="181.98" r="8.31" class="st2"/><path d="M254.17 284.96h-6.23V181.98h16.62v90.1z" class="st2"/></svg>