<svg version="1.1"
	 id="Capa_4__x2B__Capa_5_copia__x2B__Elipse_2__x2B__Elipse_1__x2B__Grupo_1_xA0_Imagen_00000173151659306323381600000003340356041171364262_"
	 xmlns="http://www.w3.org/2000/svg" xmlns:xlink="http://www.w3.org/1999/xlink" x="0px" y="0px" viewBox="0 0 319.62 319.62"
	 style="enable-background:new 0 0 319.62 319.62;" xml:space="preserve">
<style type="text/css">
	.st0{fill:#18181B;}
	.st1{fill:none;stroke:#FFFFFF;stroke-width:14.1732;stroke-miterlimit:10;}
	.st2{fill:#FFFFFF;}
	.st3{fill:none;stroke:#00DB70;stroke-width:11.3386;stroke-miterlimit:10;}
	.st4{fill:none;stroke:#FF575E;stroke-width:11.3386;stroke-miterlimit:10;}
	.st5{fill:none;stroke:#FFBF00;stroke-width:11.3386;stroke-miterlimit:10;}
	.st6{display:none;fill:#D844AA;}
	.st7{display:none;opacity:0.46;fill:#FFFFFF;}
</style>

<rect y="0" class="st0" width="319.62" height="319.62"/>
<line class="st1" x1="168" y1="207.58" x2="208.56" y2="154.9"/>
<line class="st1" x1="252.2" y1="170.8" x2="228.63" y2="151.56"/>
<path class="st2" d="M234.9,181.68c-0.74-1.2-6.51-8.84-14.1-8.84c-2.65,0-7.88,5.51-9.02,9.05c0,1.5,8.99,36,8.99,36h-31.82
	c-0.05,15.96-13,28.88-28.98,28.88c-15.97,0-28.92-12.92-28.98-28.88H99.4l40.52-152.27h39.83l15.5,57.55
	c4.68-6.59,13.08-11.92,21.55-11.13c-9.9-35.79-17.91-64.23-17.91-64.23s-8.45-7.94-38.83-7.94c-30.38,0-39.12,7.94-39.12,7.94
	S65.81,243.45,65.81,254.17c0,12.58,7.77,19.65,19.13,22.68c0,0,140.54,0,149.95,0s18.99-11.7,18.99-22.68
	C253.89,249.87,245.17,219.76,234.9,181.68z"/>
<circle class="st3" cx="160.06" cy="217.89" r="15.29"/>
<circle class="st4" cx="217.89" cy="142.79" r="15.29"/>
<circle class="st5" cx="265.79" cy="181.89" r="15.29"/>
<circle class="st6" cx="159.85" cy="86.38" r="8.52"/>
<circle class="st2" cx="160.06" cy="85.79" r="8.31"/>
<path class="st7" d="M195.25,123.17l16.1,59.76c1.59-3.89,3.47-7.63,6.46-9.13c4.92-1.64,12.24,0.91,17.36,5.36
	c-5.94-22.02-12.49-45.87-18.37-67.13C208.33,111.26,199.93,116.59,195.25,123.17z"/>
<polygon class="st2" points="157.98,188.77 151.75,188.77 151.75,85.79 168.37,85.79 168.37,175.89 "/>
</svg>
